<svg width="142" height="43" viewBox="0 0 142 43" fill="none" xmlns="http://www.w3.org/2000/svg">
<g clip-path="url(#clip0_3201_34607)">
<path d="M136.398 0H6.36132C3.35598 0 0.919678 2.44511 0.919678 5.46131V37.5387C0.919678 40.5549 3.35598 43 6.36132 43H136.398C139.403 43 141.839 40.5549 141.839 37.5387V5.46131C141.839 2.44511 139.403 0 136.398 0Z" fill="black"/>
<path d="M19.5268 36.7191C15.0145 36.693 11.282 27.4485 11.282 22.7405C11.282 15.0499 17.0304 13.3663 19.2458 13.3663C20.2442 13.3663 21.3103 13.7598 22.2506 14.108C22.9081 14.3509 23.5881 14.6016 23.9664 14.6016C24.1927 14.6016 24.7262 14.3883 25.1972 14.2012C26.2017 13.7998 27.4516 13.301 28.9072 13.301C28.9098 13.301 28.9133 13.301 28.9158 13.301C30.0027 13.301 33.2981 13.5404 35.2793 16.5264L35.7434 17.2263L35.0755 17.7322C34.1213 18.4547 32.3803 19.7728 32.3803 22.3836C32.3803 25.4758 34.352 26.665 35.2992 27.237C35.7174 27.4894 36.1502 27.7497 36.1502 28.3191C36.1502 28.6908 33.194 36.673 28.9011 36.673C27.8506 36.673 27.1081 36.3561 26.4532 36.0767C25.7905 35.7937 25.2188 35.55 24.2742 35.55C23.7954 35.55 23.1899 35.7772 22.5489 36.0184C21.6729 36.3465 20.6814 36.7191 19.5563 36.7191H19.5268Z" fill="white"/>
<path d="M29.3627 6.29175C29.4745 10.3375 26.5915 13.1443 23.712 12.9683C23.2375 9.7396 26.5912 6.29175 29.3627 6.29175Z" fill="white"/>
<path d="M52.8794 13.8729H49.0117L48.1638 15.7972H47.6399L50.7074 8.95957H51.1932L54.2608 15.7972H53.7368L52.8794 13.8729ZM52.6984 13.4529L50.9456 9.50658L49.2022 13.4529H52.6984Z" fill="white"/>
<path d="M59.0593 10.6983L56.8111 15.7972H56.3252L54.0865 10.6983H54.5914L56.5729 15.2599L58.5735 10.6983H59.0593Z" fill="white"/>
<path d="M61.6285 10.6592C62.2446 10.6592 62.7177 10.822 63.048 11.1476C63.3782 11.4667 63.5434 11.9388 63.5434 12.564V15.7972H63.0861V14.8888C62.9273 15.1883 62.6955 15.4227 62.3907 15.5921C62.0858 15.7549 61.7206 15.8363 61.2951 15.8363C60.7426 15.8363 60.3044 15.7028 59.9805 15.4358C59.6629 15.1688 59.5042 14.8171 59.5042 14.3808C59.5042 13.9575 59.6502 13.6157 59.9424 13.3552C60.2409 13.0882 60.714 12.9547 61.3618 12.9547H63.067V12.5444C63.067 12.0691 62.94 11.7076 62.686 11.4602C62.4383 11.2127 62.0731 11.089 61.5904 11.089C61.2602 11.089 60.9426 11.1476 60.6378 11.2648C60.3393 11.382 60.0853 11.5383 59.8757 11.7337L59.6375 11.382C59.8852 11.1541 60.1837 10.9783 60.533 10.8546C60.8823 10.7243 61.2475 10.6592 61.6285 10.6592ZM61.3618 15.4358C61.7746 15.4358 62.1239 15.3381 62.4097 15.1427C62.7019 14.9474 62.921 14.6641 63.067 14.2929V13.3356H61.3713C60.8823 13.3356 60.5267 13.4268 60.3044 13.6091C60.0884 13.7915 59.9805 14.0422 59.9805 14.3613C59.9805 14.6934 60.1011 14.9571 60.3425 15.1525C60.5838 15.3413 60.9236 15.4358 61.3618 15.4358Z" fill="white"/>
<path d="M65.5059 10.6983H65.9822V15.7972H65.5059V10.6983ZM65.744 9.45774C65.6361 9.45774 65.544 9.42193 65.4678 9.35029C65.3916 9.27215 65.3535 9.17773 65.3535 9.06702C65.3535 8.95632 65.3916 8.86189 65.4678 8.78375C65.544 8.7056 65.6361 8.66653 65.744 8.66653C65.852 8.66653 65.9441 8.7056 66.0203 8.78375C66.0965 8.85538 66.1346 8.94655 66.1346 9.05725C66.1346 9.16796 66.0965 9.26238 66.0203 9.34053C65.9441 9.41867 65.852 9.45774 65.744 9.45774Z" fill="white"/>
<path d="M67.9898 8.54932H68.4661V15.7972H67.9898V8.54932Z" fill="white"/>
<path d="M72.1504 10.6592C72.7664 10.6592 73.2396 10.822 73.5698 11.1476C73.9001 11.4667 74.0652 11.9388 74.0652 12.564V15.7972H73.6079V14.8888C73.4492 15.1883 73.2174 15.4227 72.9125 15.5921C72.6077 15.7549 72.2425 15.8363 71.817 15.8363C71.2644 15.8363 70.8262 15.7028 70.5023 15.4358C70.1848 15.1688 70.026 14.8171 70.026 14.3808C70.026 13.9575 70.1721 13.6157 70.4642 13.3552C70.7627 13.0882 71.2359 12.9547 71.8837 12.9547H73.5889V12.5444C73.5889 12.0691 73.4619 11.7076 73.2078 11.4602C72.9601 11.2127 72.595 11.089 72.1123 11.089C71.782 11.089 71.4645 11.1476 71.1597 11.2648C70.8612 11.382 70.6071 11.5383 70.3975 11.7337L70.1594 11.382C70.4071 11.1541 70.7056 10.9783 71.0549 10.8546C71.4042 10.7243 71.7693 10.6592 72.1504 10.6592ZM71.8837 15.4358C72.2965 15.4358 72.6458 15.3381 72.9316 15.1427C73.2237 14.9474 73.4428 14.6641 73.5889 14.2929V13.3356H71.8932C71.4042 13.3356 71.0485 13.4268 70.8262 13.6091C70.6103 13.7915 70.5023 14.0422 70.5023 14.3613C70.5023 14.6934 70.623 14.9571 70.8643 15.1525C71.1057 15.3413 71.4454 15.4358 71.8837 15.4358Z" fill="white"/>
<path d="M78.5237 10.6592C78.9873 10.6592 79.4064 10.7699 79.7811 10.9913C80.1558 11.2062 80.448 11.5123 80.6576 11.9095C80.8735 12.3002 80.9815 12.7463 80.9815 13.2477C80.9815 13.7492 80.8735 14.1952 80.6576 14.586C80.448 14.9767 80.1558 15.2827 79.7811 15.5041C79.4064 15.7256 78.9873 15.8363 78.5237 15.8363C78.0791 15.8363 77.6758 15.7288 77.3138 15.5139C76.9581 15.2925 76.6819 14.9864 76.485 14.5957V15.7972H76.0277V8.54932H76.504V11.8607C76.7009 11.483 76.9772 11.1899 77.3328 10.9816C77.6885 10.7667 78.0854 10.6592 78.5237 10.6592ZM78.4951 15.3967C78.8761 15.3967 79.2191 15.3055 79.5239 15.1232C79.8288 14.9409 80.0669 14.6869 80.2384 14.3613C80.4162 14.0357 80.5051 13.6645 80.5051 13.2477C80.5051 12.831 80.4162 12.4598 80.2384 12.1342C80.0669 11.8086 79.8288 11.5546 79.5239 11.3723C79.2191 11.1899 78.8761 11.0988 78.4951 11.0988C78.114 11.0988 77.7711 11.1899 77.4662 11.3723C77.1677 11.5546 76.9296 11.8086 76.7517 12.1342C76.5803 12.4598 76.4945 12.831 76.4945 13.2477C76.4945 13.6645 76.5803 14.0357 76.7517 14.3613C76.9296 14.6869 77.1677 14.9409 77.4662 15.1232C77.7711 15.3055 78.114 15.3967 78.4951 15.3967Z" fill="white"/>
<path d="M82.4562 8.54932H82.9325V15.7972H82.4562V8.54932Z" fill="white"/>
<path d="M89.1413 13.3649H84.8639C84.8766 13.7622 84.9751 14.1171 85.1592 14.4297C85.3434 14.7357 85.5911 14.9734 85.9023 15.1427C86.2199 15.312 86.5755 15.3967 86.9693 15.3967C87.2932 15.3967 87.5917 15.3381 87.8647 15.2209C88.1442 15.0971 88.376 14.9181 88.5602 14.6836L88.8364 15.006C88.6205 15.273 88.3474 15.4781 88.0172 15.6214C87.6933 15.7646 87.3408 15.8363 86.9597 15.8363C86.4644 15.8363 86.023 15.7256 85.6356 15.5041C85.2482 15.2827 84.9433 14.9767 84.721 14.586C84.5051 14.1952 84.3971 13.7492 84.3971 13.2477C84.3971 12.7528 84.4987 12.31 84.702 11.9193C84.9116 11.522 85.1974 11.2127 85.5594 10.9913C85.9214 10.7699 86.3278 10.6592 86.7787 10.6592C87.2297 10.6592 87.6329 10.7699 87.9886 10.9913C88.3506 11.2062 88.6332 11.509 88.8364 11.8997C89.046 12.2905 89.1508 12.7333 89.1508 13.2282L89.1413 13.3649ZM86.7787 11.089C86.4294 11.089 86.1151 11.1704 85.8356 11.3332C85.5562 11.4895 85.3307 11.7142 85.1592 12.0072C84.9941 12.2937 84.8989 12.6193 84.8735 12.984H88.684C88.665 12.6193 88.5697 12.2937 88.3982 12.0072C88.2268 11.7207 88.0013 11.496 87.7219 11.3332C87.4424 11.1704 87.128 11.089 86.7787 11.089Z" fill="white"/>
<path d="M95.0145 15.8363C94.5445 15.8363 94.119 15.7256 93.7379 15.5041C93.3632 15.2827 93.0679 14.9767 92.852 14.586C92.636 14.1887 92.5281 13.7426 92.5281 13.2477C92.5281 12.7528 92.636 12.31 92.852 11.9193C93.0679 11.522 93.3632 11.2127 93.7379 10.9913C94.119 10.7699 94.5445 10.6592 95.0145 10.6592C95.4844 10.6592 95.9068 10.7699 96.2815 10.9913C96.6625 11.2127 96.961 11.522 97.177 11.9193C97.3929 12.31 97.5009 12.7528 97.5009 13.2477C97.5009 13.7426 97.3929 14.1887 97.177 14.586C96.961 14.9767 96.6625 15.2827 96.2815 15.5041C95.9068 15.7256 95.4844 15.8363 95.0145 15.8363ZM95.0145 15.3967C95.3955 15.3967 95.7353 15.3055 96.0338 15.1232C96.3386 14.9409 96.5768 14.6869 96.7483 14.3613C96.9261 14.0357 97.015 13.6645 97.015 13.2477C97.015 12.831 96.9261 12.4598 96.7483 12.1342C96.5768 11.8086 96.3386 11.5546 96.0338 11.3723C95.7353 11.1899 95.3955 11.0988 95.0145 11.0988C94.6334 11.0988 94.2905 11.1899 93.9856 11.3723C93.6871 11.5546 93.449 11.8086 93.2711 12.1342C93.0997 12.4598 93.0139 12.831 93.0139 13.2477C93.0139 13.6645 93.0997 14.0357 93.2711 14.3613C93.449 14.6869 93.6871 14.9409 93.9856 15.1232C94.2905 15.3055 94.6334 15.3967 95.0145 15.3967Z" fill="white"/>
<path d="M101.408 10.6592C102.03 10.6592 102.522 10.8448 102.884 11.216C103.246 11.5872 103.427 12.1212 103.427 12.8179V15.7972H102.951V12.857C102.951 12.284 102.808 11.8477 102.522 11.5481C102.243 11.2485 101.849 11.0988 101.341 11.0988C100.757 11.0988 100.296 11.2778 99.9598 11.636C99.6232 11.9942 99.4549 12.4761 99.4549 13.0817V15.7972H98.9786V10.6983H99.4359V11.8021C99.6073 11.4439 99.8614 11.1639 100.198 10.962C100.541 10.7601 100.944 10.6592 101.408 10.6592Z" fill="white"/>
<path d="M110.303 15.4748C110.182 15.5921 110.029 15.6832 109.845 15.7483C109.667 15.807 109.48 15.8363 109.283 15.8363C108.851 15.8363 108.518 15.7158 108.283 15.4748C108.048 15.2274 107.93 14.8855 107.93 14.4492V11.1183H107.016V10.6983H107.93V9.58473H108.407V10.6983H109.988V11.1183H108.407V14.4004C108.407 14.7325 108.483 14.9864 108.635 15.1623C108.794 15.3316 109.026 15.4162 109.331 15.4162C109.642 15.4162 109.899 15.3218 110.102 15.133L110.303 15.4748Z" fill="white"/>
<path d="M114.06 10.6592C114.682 10.6592 115.175 10.8448 115.537 11.216C115.899 11.5872 116.08 12.1212 116.08 12.8179V15.7972H115.603V12.857C115.603 12.284 115.46 11.8477 115.175 11.5481C114.895 11.2485 114.501 11.0988 113.993 11.0988C113.409 11.0988 112.949 11.2778 112.612 11.636C112.275 11.9942 112.107 12.4761 112.107 13.0817V15.7972H111.631V8.54932H112.107V11.763C112.279 11.4113 112.533 11.1411 112.869 10.9522C113.206 10.7569 113.603 10.6592 114.06 10.6592Z" fill="white"/>
<path d="M122.251 13.3649H117.974C117.987 13.7622 118.085 14.1171 118.269 14.4297C118.453 14.7357 118.701 14.9734 119.012 15.1427C119.33 15.312 119.685 15.3967 120.079 15.3967C120.403 15.3967 120.702 15.3381 120.975 15.2209C121.254 15.0971 121.486 14.9181 121.67 14.6836L121.946 15.006C121.73 15.273 121.457 15.4781 121.127 15.6214C120.803 15.7646 120.451 15.8363 120.07 15.8363C119.574 15.8363 119.133 15.7256 118.745 15.5041C118.358 15.2827 118.053 14.9767 117.831 14.586C117.615 14.1952 117.507 13.7492 117.507 13.2477C117.507 12.7528 117.609 12.31 117.812 11.9193C118.021 11.522 118.307 11.2127 118.669 10.9913C119.031 10.7699 119.438 10.6592 119.889 10.6592C120.34 10.6592 120.743 10.7699 121.098 10.9913C121.46 11.2062 121.743 11.509 121.946 11.8997C122.156 12.2905 122.261 12.7333 122.261 13.2282L122.251 13.3649ZM119.889 11.089C119.539 11.089 119.225 11.1704 118.946 11.3332C118.666 11.4895 118.441 11.7142 118.269 12.0072C118.104 12.2937 118.009 12.6193 117.983 12.984H121.794C121.775 12.6193 121.68 12.2937 121.508 12.0072C121.337 11.7207 121.111 11.496 120.832 11.3332C120.552 11.1704 120.238 11.089 119.889 11.089Z" fill="white"/>
<path d="M54.9275 29.2486H49.5768L48.5356 31.6862H46.511L51.2832 21.1899H53.2211L57.9933 31.6862H55.9398L54.9275 29.2486ZM54.2912 27.7286L52.2955 23.1401L50.2999 27.7286H54.2912Z" fill="white"/>
<path d="M65.746 24.0886C66.3497 24.4284 66.8494 24.9239 67.1921 25.5225C67.5516 26.1834 67.7398 26.9225 67.7398 27.6734C67.7398 28.4243 67.5516 29.1634 67.1921 29.8243C66.8663 30.4354 66.3623 30.9351 65.746 31.2582C65.0983 31.6064 64.3713 31.7841 63.6346 31.7744C63.1484 31.801 62.6624 31.7195 62.212 31.5359C61.7617 31.3523 61.3584 31.0713 61.0316 30.7133V34.5849H59.1516V23.6584H60.9448V24.7195C61.2573 24.347 61.6535 24.0523 62.1017 23.8592C62.5912 23.6731 63.1104 23.576 63.6346 23.5724C64.3713 23.5627 65.0983 23.7404 65.746 24.0886ZM65.1386 29.4801C65.5566 28.9692 65.7848 28.3313 65.7848 27.6734C65.7848 27.0155 65.5566 26.3776 65.1386 25.8667C64.9179 25.6408 64.6522 25.4629 64.3584 25.3444C64.0647 25.2259 63.7492 25.1694 63.4322 25.1784C62.9998 25.1676 62.5717 25.2663 62.1885 25.4652C61.8375 25.6954 61.5414 25.9988 61.3208 26.3542C61.1078 26.7619 60.9966 27.2143 60.9966 27.6734C60.9966 28.1325 61.1078 28.5849 61.3208 28.9926C61.5321 29.355 61.8301 29.6603 62.1885 29.8816C62.5717 30.0805 62.9998 30.1792 63.4322 30.1684C63.7492 30.1774 64.0647 30.1209 64.3584 30.0024C64.6522 29.8839 64.9179 29.706 65.1386 29.4801Z" fill="white"/>
<path d="M76.0984 24.0893C76.7164 24.4201 77.2277 24.9171 77.5735 25.5232C77.9163 26.1892 78.095 26.9263 78.095 27.6741C78.095 28.4218 77.9163 29.1589 77.5735 29.8249C77.2445 30.4437 76.7288 30.945 76.0984 31.2589C75.4531 31.6133 74.7245 31.7914 73.9871 31.7751C73.5056 31.7973 73.0252 31.7137 72.5802 31.5303C72.1352 31.3469 71.7366 31.0681 71.4129 30.714V34.5855H69.533V23.6591H71.3262V24.7202C71.6386 24.3476 72.0349 24.0529 72.4831 23.8598C72.9626 23.6741 73.4723 23.577 73.9871 23.5731C74.7245 23.5567 75.4531 23.7348 76.0984 24.0893ZM75.491 29.4808C75.9363 28.9825 76.1821 28.3398 76.1821 27.6741C76.1821 27.0083 75.9363 26.3656 75.491 25.8673C75.2715 25.64 75.006 25.4612 74.7119 25.3426C74.4178 25.224 74.1019 25.1683 73.7846 25.179C73.3606 25.1578 72.9392 25.2572 72.5703 25.4655C72.2013 25.6739 71.9001 25.9824 71.7022 26.3549C71.4892 26.7625 71.378 27.2149 71.378 27.6741C71.378 28.1332 71.4892 28.5856 71.7022 28.9933C71.8973 29.3675 72.1991 29.6766 72.5698 29.8823C72.9417 30.0838 73.3611 30.1828 73.7846 30.1691C74.1019 30.1799 74.4178 30.1241 74.7119 30.0055C75.006 29.8869 75.2715 29.7081 75.491 29.4808Z" fill="white"/>
<path d="M85.1817 31.3717C84.5159 31.1965 83.895 30.8838 83.3596 30.454L84.0538 28.934C84.5276 29.3064 85.067 29.5884 85.6445 29.7657C86.2464 29.9841 86.8836 30.091 87.5245 30.0812C88.1364 30.1266 88.7487 29.9972 89.2888 29.7083C89.4681 29.6165 89.6176 29.4761 89.72 29.3036C89.8223 29.1311 89.8734 28.9333 89.8672 28.7333C89.8762 28.5011 89.7932 28.2746 89.6358 28.1023C89.4021 27.8937 89.1259 27.7372 88.826 27.6435L87.4666 27.2707C86.799 27.123 86.1419 26.9314 85.4999 26.6971C85.0052 26.4996 84.5608 26.196 84.1984 25.8081C83.831 25.3437 83.646 24.7628 83.6778 24.1734C83.6736 23.6141 83.8345 23.0659 84.1405 22.5961C84.501 22.0835 85.0032 21.6851 85.5867 21.449C86.329 21.1459 87.1268 20.9994 87.9294 21.0188C88.5747 21.016 89.2173 21.1029 89.8383 21.2769C90.4181 21.4 90.9682 21.6337 91.458 21.9652L90.8506 23.4851C90.3707 23.1671 89.8438 22.9252 89.2888 22.7682C88.8189 22.6331 88.3319 22.5655 87.8426 22.5674C87.2368 22.5279 86.6329 22.6677 86.1073 22.9689C85.9296 23.0773 85.783 23.2292 85.6817 23.41C85.5804 23.5908 85.5277 23.7945 85.5288 24.0013C85.5242 24.1397 85.5534 24.2771 85.6138 24.402C85.6742 24.5268 85.7641 24.6353 85.8759 24.7183C86.1096 24.9269 86.3858 25.0834 86.6857 25.1771L88.0451 25.55C88.7059 25.6878 89.3541 25.8796 89.9829 26.1235C90.483 26.3109 90.9297 26.616 91.2844 27.0126C91.6523 27.4656 91.8378 28.0378 91.805 28.6186C91.8092 29.1778 91.6484 29.7261 91.3423 30.1959C90.9802 30.7002 90.4776 31.0889 89.8962 31.3143C89.1448 31.6213 88.3367 31.7679 87.5245 31.7445C86.7291 31.7375 85.9394 31.6118 85.1817 31.3717Z" fill="white"/>
<path d="M98.3119 31.373C98.0671 31.5518 97.7931 31.6876 97.502 31.7745C97.1757 31.8182 96.845 31.8182 96.5187 31.7745C95.7603 31.8254 95.0122 31.5781 94.4362 31.0863C93.944 30.5341 93.6851 29.8152 93.7132 29.0788V25.2359H92.5273V23.7446H93.8578V21.9092H95.7667V23.7446H97.907V25.2359H95.7667V29.0501C95.7418 29.3726 95.8457 29.6919 96.0559 29.9391C96.1625 30.0414 96.2899 30.1198 96.4296 30.1693C96.5692 30.2187 96.718 30.2381 96.8657 30.2259C97.2489 30.2498 97.6282 30.138 97.9359 29.9104L98.3119 31.373Z" fill="white"/>
<path d="M101.204 31.3706C100.555 31.048 100.021 30.5381 99.6708 29.908C99.2941 29.2642 99.104 28.5299 99.1212 27.7858C99.084 27.0378 99.254 26.2939 99.6129 25.6349C99.973 25.0198 100.506 24.5217 101.146 24.201C101.816 23.8269 102.575 23.6387 103.344 23.6561C104.122 23.6392 104.89 23.8272 105.571 24.201C106.163 24.546 106.652 25.0409 106.988 25.6349C107.362 26.2798 107.552 27.0134 107.538 27.7571C107.555 28.5012 107.365 29.2356 106.988 29.8793C106.63 30.503 106.098 31.0109 105.455 31.3419C104.767 31.6938 104.002 31.8711 103.228 31.8582C102.525 31.8524 101.832 31.6855 101.204 31.3706ZM105.137 29.5926C105.555 29.0816 105.783 28.4437 105.783 27.7858C105.783 27.1279 105.555 26.49 105.137 25.9791C104.911 25.7524 104.64 25.5743 104.342 25.4559C104.043 25.3375 103.723 25.2813 103.402 25.2908C103.085 25.28 102.769 25.3358 102.475 25.4544C102.18 25.573 101.915 25.7518 101.695 25.9791C101.467 26.2198 101.29 26.504 101.175 26.8147C101.061 27.1253 101.012 27.4557 101.03 27.7858C101.012 28.116 101.061 28.4464 101.175 28.757C101.29 29.0676 101.467 29.3519 101.695 29.5926C101.915 29.8199 102.18 29.9987 102.475 30.1173C102.769 30.2359 103.085 30.2916 103.402 30.2808C103.722 30.2679 104.036 30.1899 104.325 30.0518C104.613 29.9137 104.87 29.7183 105.079 29.4778L105.137 29.5926Z" fill="white"/>
<path d="M114.132 23.5697V25.3764H113.699C113.385 25.3564 113.071 25.4023 112.777 25.511C112.483 25.6197 112.216 25.7889 111.992 26.0073C111.766 26.2547 111.594 26.5449 111.484 26.8604C111.375 27.1758 111.331 27.51 111.356 27.8427V31.743H109.476V23.6557H111.269V24.8315C111.596 24.3941 112.031 24.0479 112.533 23.8268C113.035 23.6057 113.586 23.5171 114.132 23.5697Z" fill="white"/>
<path d="M123.244 28.2737H116.881C116.927 28.5557 117.03 28.8255 117.185 29.067C117.339 29.3085 117.54 29.5166 117.777 29.6789C118.285 30.0308 118.894 30.2118 119.513 30.1951C119.92 30.2132 120.326 30.146 120.705 29.9977C121.083 29.8494 121.426 29.6235 121.711 29.3348L122.723 30.4819C122.368 30.865 121.934 31.1681 121.451 31.3709C120.848 31.5851 120.211 31.6919 119.571 31.6864C118.737 31.7802 117.894 31.6719 117.112 31.3709C116.489 30.9921 115.987 30.445 115.666 29.7936C115.289 29.1498 115.099 28.4155 115.117 27.6714C115.109 26.9557 115.299 26.2517 115.666 25.6353C116.002 25.0146 116.515 24.5059 117.141 24.1727C117.794 23.8238 118.525 23.6411 119.267 23.6411C120.009 23.6411 120.739 23.8238 121.393 24.1727C122.019 24.5059 122.532 25.0146 122.868 25.6353C123.226 26.3058 123.405 27.0561 123.388 27.8148C123.388 27.8148 123.244 28.0442 123.244 28.2737ZM117.633 25.6353C117.217 26.0086 116.95 26.5174 116.881 27.0692H121.451C121.405 26.5167 121.146 26.003 120.728 25.6353C120.286 25.2838 119.732 25.1007 119.166 25.119C118.61 25.1099 118.068 25.2924 117.633 25.6353Z" fill="white"/>
</g>
<defs>
<clipPath id="clip0_3201_34607">
<rect width="140.92" height="43" fill="white" transform="translate(0.919678)"/>
</clipPath>
</defs>
</svg>
