<svg width="16" height="16" viewBox="0 0 16 16" fill="none" xmlns="http://www.w3.org/2000/svg">
<g clip-path="url(#clip0_3170_27394)">
<path d="M9.15809 2.29703L10.3332 4.66294C10.4915 4.99015 10.9165 5.30057 11.2749 5.36769L13.4 5.72006C14.7585 5.94658 15.0752 6.93657 14.1001 7.92656L12.4416 9.59613C12.1666 9.87299 12.0083 10.4183 12.1 10.8126L12.575 12.8765C12.95 14.5041 12.0833 15.1418 10.6582 14.286L8.66639 13.0947C8.30803 12.8765 7.70799 12.8765 7.34963 13.0947L5.35783 14.286C3.93273 15.1334 3.066 14.5041 3.44103 12.8765L3.91606 10.8126C3.99107 10.4099 3.83272 9.8646 3.5577 9.58774L1.89926 7.91818C0.924191 6.93657 1.24088 5.94658 2.59931 5.71167L4.72445 5.3593C5.08281 5.30057 5.50784 4.98176 5.66618 4.65456L6.84126 2.28864C7.48297 1.01339 8.51638 1.01339 9.15809 2.29703Z" fill="#FFA500"/>
</g>
<defs>
<clipPath id="clip0_3170_27394">
<rect width="16" height="16" fill="white"/>
</clipPath>
</defs>
</svg>
