<svg width="141" height="43" viewBox="0 0 141 43" fill="none" xmlns="http://www.w3.org/2000/svg">
<g clip-path="url(#clip0_3201_34606)">
<path d="M135.478 0H5.44164C2.4363 0 0 2.44511 0 5.46131V37.5387C0 40.5549 2.4363 43 5.44164 43H135.478C138.483 43 140.92 40.5549 140.92 37.5387V5.46131C140.92 2.44511 138.483 0 135.478 0Z" fill="black"/>
<path d="M51.552 12.0878H54.245V12.3139C54.245 13.3784 53.9537 14.2183 53.3711 14.8336C52.7885 15.4489 51.9934 15.7566 50.9858 15.7566C50.6796 15.7566 50.3868 15.7228 50.1074 15.6551C49.831 15.5874 49.5753 15.4889 49.3405 15.3597C48.8055 15.0551 48.3923 14.6352 48.101 14.0999C47.8097 13.5614 47.6641 12.9507 47.6641 12.2677C47.6641 11.7047 47.7503 11.1971 47.9227 10.7448C48.098 10.2895 48.3611 9.88952 48.7118 9.54494C49.0061 9.25574 49.3479 9.0373 49.7373 8.88962C50.1267 8.74195 50.5577 8.66811 51.0303 8.66811C51.6575 8.66811 52.2015 8.78656 52.6622 9.02345C53.1229 9.25728 53.5049 9.61109 53.8081 10.0849L53.1571 10.6248C52.9223 10.2156 52.6295 9.90952 52.2788 9.70646C51.928 9.50033 51.5208 9.39726 51.0571 9.39726C50.2991 9.39726 49.6838 9.66185 49.2112 10.191C48.7386 10.7202 48.5023 11.4124 48.5023 12.2677C48.5023 13.0738 48.7416 13.7353 49.2201 14.2521C49.7017 14.769 50.314 15.0274 51.0571 15.0274C51.711 15.0274 52.255 14.8229 52.689 14.4137C53.1259 14.0014 53.3682 13.4661 53.4157 12.8077H51.552V12.0878Z" fill="white"/>
<path d="M55.3998 15.5766V8.8204H58.8419V9.55417H56.1756V11.4924H58.8419V12.24H56.1756V14.829H58.8419V15.5766H55.3998Z" fill="white"/>
<path d="M61.3031 15.5766V9.58647H59.4572V8.8204H63.9247V9.58647H62.0878V15.5766H61.3031Z" fill="white"/>
<path d="M67.4917 15.5766V8.8204H68.2675V15.5766H67.4917Z" fill="white"/>
<path d="M70.9872 15.5766V9.58647H69.1414V8.8204H73.6089V9.58647H71.772V15.5766H70.9872Z" fill="white"/>
<path d="M80.3549 14.9998C80.7115 14.9998 81.0504 14.9305 81.3714 14.7921C81.6954 14.6506 81.9867 14.446 82.2453 14.1783C82.5009 13.9137 82.6956 13.6137 82.8294 13.2784C82.9632 12.943 83.03 12.5877 83.03 12.2124C83.03 11.8339 82.9617 11.474 82.8249 11.1325C82.6912 10.791 82.498 10.4895 82.2453 10.2279C81.9897 9.96336 81.6999 9.76184 81.3759 9.62339C81.0549 9.48495 80.7145 9.41572 80.3549 9.41572C79.9922 9.41572 79.6489 9.48495 79.3249 9.62339C79.0009 9.76184 78.7141 9.96336 78.4644 10.2279C78.2088 10.4956 78.0141 10.7987 77.8803 11.1371C77.7465 11.4755 77.6797 11.8339 77.6797 12.2124C77.6797 12.5877 77.7451 12.9415 77.8758 13.2738C78.0096 13.6061 78.2058 13.9076 78.4644 14.1783C78.726 14.449 79.0158 14.6536 79.3338 14.7921C79.6548 14.9305 79.9952 14.9998 80.3549 14.9998ZM83.8415 12.2124C83.8415 12.6954 83.7553 13.1507 83.5829 13.5784C83.4105 14.006 83.1593 14.386 82.8294 14.7183C82.4995 15.0505 82.119 15.3074 81.688 15.4889C81.26 15.6674 80.8156 15.7566 80.3549 15.7566C79.8941 15.7566 79.4497 15.6674 79.0217 15.4889C78.5967 15.3074 78.2192 15.0505 77.8892 14.7183C77.5563 14.3829 77.3022 14.0014 77.1268 13.5738C76.9544 13.1461 76.8682 12.6923 76.8682 12.2124C76.8682 11.7293 76.9544 11.274 77.1268 10.8463C77.3022 10.4156 77.5563 10.0326 77.8892 9.69723C78.2162 9.36803 78.5937 9.11421 79.0217 8.93577C79.4497 8.75733 79.8941 8.66811 80.3549 8.66811C80.8186 8.66811 81.2644 8.75733 81.6924 8.93577C82.1234 9.11421 82.5024 9.36803 82.8294 9.69723C83.1593 10.0295 83.4105 10.411 83.5829 10.8417C83.7553 11.2694 83.8415 11.7263 83.8415 12.2124Z" fill="white"/>
<path d="M85.1122 15.5766V8.55273L89.8874 13.9522V8.8204H90.6276V15.8397L85.8524 10.5002V15.5766H85.1122Z" fill="white"/>
<path d="M72.3184 24.1822C70.1802 24.1822 68.4307 25.7603 68.4307 27.9696C68.4307 30.1474 70.1802 31.7571 72.3184 31.7571C74.4567 31.7571 76.2061 30.1474 76.2061 27.9696C76.2061 25.7603 74.4567 24.1822 72.3184 24.1822ZM72.3184 30.2421C71.1521 30.2421 70.1478 29.2953 70.1478 27.9696C70.1478 26.6125 71.1521 25.6971 72.3184 25.6971C73.4847 25.6971 74.4891 26.6125 74.4891 27.9696C74.4891 29.2953 73.4847 30.2421 72.3184 30.2421ZM63.8302 24.1822C61.692 24.1822 59.9425 25.7603 59.9425 27.9696C59.9425 30.1474 61.692 31.7571 63.8302 31.7571C65.9685 31.7571 67.718 30.1474 67.718 27.9696C67.718 25.7603 65.9685 24.1822 63.8302 24.1822ZM63.8302 30.2421C62.6639 30.2421 61.6596 29.2953 61.6596 27.9696C61.6596 26.6125 62.6639 25.6971 63.8302 25.6971C64.9966 25.6971 66.0009 26.6125 66.0009 27.9696C66.0333 29.2953 64.9966 30.2421 63.8302 30.2421ZM53.7546 25.3184V26.9281H57.6747C57.5451 27.8434 57.2535 28.4746 56.7676 28.9481C56.1844 29.5162 55.3097 30.1159 53.7222 30.1159C51.2924 30.1159 49.4133 28.2221 49.4133 25.855C49.4133 23.4878 51.2924 21.5941 53.7222 21.5941C55.0181 21.5941 55.99 22.099 56.7028 22.7303L57.8691 21.5941C56.8971 20.6787 55.5688 19.9844 53.7546 19.9844C50.45 19.9844 47.6638 22.604 47.6638 25.855C47.6638 29.0743 50.45 31.7255 53.7546 31.7255C55.5364 31.7255 56.8971 31.1574 57.9663 30.0843C59.0678 29.0112 59.3918 27.5278 59.3918 26.3284C59.3918 25.9496 59.3594 25.6025 59.2946 25.3184H53.7546ZM94.9968 26.5809C94.6728 25.7287 93.7009 24.1822 91.6922 24.1822C89.6836 24.1822 88.0313 25.6972 88.0313 27.9696C88.0313 30.0843 89.6836 31.7571 91.8866 31.7571C93.6685 31.7571 94.7052 30.684 95.1264 30.0843L93.7981 29.2321C93.3445 29.8634 92.7613 30.2737 91.8866 30.2737C91.0119 30.2737 90.3963 29.8949 90.0075 29.1374L95.1912 27.0543L94.9968 26.5809ZM89.716 27.8434C89.6836 26.3915 90.8823 25.634 91.757 25.634C92.4374 25.634 93.0205 25.9496 93.1825 26.4231L89.716 27.8434ZM85.5043 31.5046H87.2213V20.3947H85.5043V31.5046ZM82.7181 25.0028H82.6533C82.2645 24.5609 81.5518 24.1506 80.6122 24.1506C78.6684 24.1506 76.8865 25.8234 76.8865 27.9381C76.8865 30.0527 78.6684 31.694 80.6122 31.694C81.5518 31.694 82.2645 31.2837 82.6533 30.8418H82.7181V31.3784C82.7181 32.8302 81.9405 33.5877 80.6446 33.5877C79.6079 33.5877 78.9599 32.8618 78.7008 32.2305L77.2105 32.8302C77.6316 33.8402 78.7656 35.0712 80.6446 35.0712C82.6533 35.0712 84.3379 33.9349 84.3379 31.1259V24.4031H82.7181V25.0028ZM80.7742 30.2421C79.6079 30.2421 78.6036 29.2953 78.6036 27.9696C78.6036 26.644 79.5755 25.6656 80.7742 25.6656C81.9405 25.6656 82.8477 26.644 82.8477 27.9696C82.8477 29.2637 81.9405 30.2421 80.7742 30.2421ZM102.999 20.3947H98.9169V31.473H100.602V27.2753H102.967C104.846 27.2753 106.692 25.9496 106.692 23.835C106.692 21.7203 104.878 20.3947 102.999 20.3947ZM103.031 25.7603H100.602V21.9728H103.031C104.295 21.9728 105.008 22.9828 105.008 23.8665C105.008 24.7187 104.295 25.7603 103.031 25.7603ZM113.528 24.1506C112.297 24.1506 111.034 24.6872 110.483 25.855L112.006 26.4546C112.33 25.855 112.913 25.634 113.561 25.634C114.435 25.634 115.342 26.139 115.342 27.0543V27.1806C115.051 27.0228 114.371 26.7387 113.561 26.7387C111.941 26.7387 110.288 27.6224 110.288 29.2321C110.288 30.7156 111.617 31.6624 113.107 31.6624C114.241 31.6624 114.889 31.1574 115.278 30.5893H115.342V31.4415H116.995V27.2121C116.995 25.2553 115.472 24.1506 113.528 24.1506ZM113.334 30.2421C112.783 30.2421 112.006 29.9581 112.006 29.2953C112.006 28.4431 112.977 28.0959 113.82 28.0959C114.565 28.0959 114.921 28.2537 115.375 28.4746C115.213 29.5162 114.306 30.2421 113.334 30.2421ZM122.956 24.4031L121.012 29.2006H120.947L118.939 24.4031H117.124L120.17 31.1259L118.453 34.8502H120.235L124.867 24.4031H122.956ZM107.664 31.5046H109.349V20.3947H107.664V31.5046Z" fill="white"/>
<path d="M12.9311 7.78587C12.6246 8.13185 12.4331 8.6316 12.4331 9.32357V33.2348C12.4331 33.8883 12.6246 34.4265 12.9311 34.7725L13.0077 34.8494L26.3375 21.4714V21.3176V21.1639L13.0077 7.70898L12.9311 7.78587Z" fill="url(#paint0_linear_3201_34606)"/>
<path d="M30.7802 25.8934L26.3369 21.4341V21.2803V21.1266L30.7802 16.6672L30.8951 16.7057L36.181 19.7042C37.6749 20.5499 37.6749 21.9723 36.181 22.818L30.8951 25.8165L30.7802 25.8934Z" fill="url(#paint1_linear_3201_34606)"/>
<path d="M30.8972 25.8155L26.339 21.2793L12.9326 34.7342C13.4306 35.2724 14.235 35.3108 15.1542 34.8111L30.8972 25.8155Z" fill="url(#paint2_linear_3201_34606)"/>
<path d="M30.8974 16.7043L15.1545 7.70881C14.2352 7.17061 13.4308 7.2475 12.9329 7.78569L26.3393 21.2406L30.8974 16.7043Z" fill="url(#paint3_linear_3201_34606)"/>
<path opacity="0.2" d="M30.7815 25.7412L15.1535 34.6599C14.2725 35.1596 13.5064 35.1212 13.0085 34.6599L12.9319 34.7368L13.0085 34.8136C13.5064 35.2749 14.3108 35.3134 15.1535 34.8136L30.8965 25.8565L30.7815 25.7412Z" fill="#0A0A0A"/>
<path opacity="0.12" d="M12.9312 34.5789C12.6247 34.2328 12.4331 33.7329 12.4331 33.0408V33.1946C12.4331 33.8483 12.6247 34.3866 12.9312 34.7327L13.0078 34.6558L12.9312 34.5789Z" fill="#0A0A0A"/>
<path opacity="0.12" d="M36.1438 22.6632L30.7812 25.7386L30.8962 25.854L36.1821 22.8554C36.9482 22.4326 37.2929 21.8559 37.2929 21.2793C37.2163 21.779 36.8333 22.2788 36.1438 22.6632Z" fill="#0A0A0A"/>
<path opacity="0.25" d="M15.1529 7.90087L36.1435 19.8949C36.833 20.2794 37.216 20.7791 37.2543 21.2789C37.2543 20.7022 36.8713 20.164 36.1435 19.7027L15.1529 7.70866C13.6591 6.86292 12.4333 7.55489 12.4333 9.2848V9.43857C12.4333 7.7471 13.6591 7.01669 15.1529 7.90087Z" fill="white"/>
</g>
<defs>
<linearGradient id="paint0_linear_3201_34606" x1="25.1538" y1="9.05647" x2="7.01431" y2="27.1306" gradientUnits="userSpaceOnUse">
<stop stop-color="#00A0FF"/>
<stop offset="0.00657445" stop-color="#00A1FF"/>
<stop offset="0.2601" stop-color="#00BEFF"/>
<stop offset="0.5122" stop-color="#00D2FF"/>
<stop offset="0.7604" stop-color="#00DFFF"/>
<stop offset="1" stop-color="#00E3FF"/>
</linearGradient>
<linearGradient id="paint1_linear_3201_34606" x1="38.1142" y1="21.2625" x2="12.0548" y2="21.2625" gradientUnits="userSpaceOnUse">
<stop stop-color="#FFE000"/>
<stop offset="0.4087" stop-color="#FFBD00"/>
<stop offset="0.7754" stop-color="#FFA500"/>
<stop offset="1" stop-color="#FF9C00"/>
</linearGradient>
<linearGradient id="paint2_linear_3201_34606" x1="28.4156" y1="23.7417" x2="3.81701" y2="48.2516" gradientUnits="userSpaceOnUse">
<stop stop-color="#FF3A44"/>
<stop offset="1" stop-color="#C31162"/>
</linearGradient>
<linearGradient id="paint3_linear_3201_34606" x1="9.53687" y1="-0.167326" x2="20.5212" y2="10.7774" gradientUnits="userSpaceOnUse">
<stop stop-color="#32A071"/>
<stop offset="0.0685" stop-color="#2DA771"/>
<stop offset="0.4762" stop-color="#15CF74"/>
<stop offset="0.8009" stop-color="#06E775"/>
<stop offset="1" stop-color="#00F076"/>
</linearGradient>
<clipPath id="clip0_3201_34606">
<rect width="140.92" height="43" fill="white"/>
</clipPath>
</defs>
</svg>
